<svg id="visual" viewBox="0 0 900 600" width="900" height="600" xmlns="http://www.w3.org/2000/svg" xmlns:xlink="http://www.w3.org/1999/xlink" version="1.1"><rect x="0" y="0" width="900" height="600" fill="#ffffff"></rect><defs><linearGradient id="grad1_0" x1="33.3%" y1="0%" x2="100%" y2="100%"><stop offset="20%" stop-color="#ffffff" stop-opacity="1"></stop><stop offset="80%" stop-color="#ffffff" stop-opacity="1"></stop></linearGradient></defs><defs><linearGradient id="grad2_0" x1="0%" y1="0%" x2="66.7%" y2="100%"><stop offset="20%" stop-color="#ffffff" stop-opacity="1"></stop><stop offset="80%" stop-color="#ffffff" stop-opacity="1"></stop></linearGradient></defs><g transform="translate(900, 0)"><path d="M0 297.5C-36.5 263.3 -73.1 229.2 -120.5 208.7C-167.9 188.2 -226.3 181.2 -257.6 148.7C-288.9 116.2 -293.2 58.1 -297.5 0L0 0Z" fill="#0066FF"></path></g><g transform="translate(0, 600)"><path d="M0 -297.5C59.7 -294.1 119.4 -290.8 148.7 -257.6C178 -224.4 176.9 -161.4 196.6 -113.5C216.3 -65.6 256.9 -32.8 297.5 0L0 0Z" fill="#0066FF"></path></g></svg>